# xmcd
#
# Track frame offsets:
#	150
#	15818
#	28629
#	43725
#	59602
#	73827
#	85667
#	100239
#	112887
#	132879
#	147948
#	159582
#	170206
#	180915
#	193787
#	208979
#	221056
#	231978
#	245125
#	259465
#
# Disc length: 3622 seconds
# Revision: 2
# Processed by: cddbd v1.5.2PL0 Copyright (c) Steve Scherf et al.
# Submitted via: dBpowerAMP V12.0
#
DISCID=2c0e2414
DTITLE=Terry Gordon - Australia's Not Australia Anymore
DYEAR=2012
DGENRE=Country
TTITLE0=Dance With Me
TTITLE1=Melbourne Airport Tullamarine
TTITLE2=The Box
TTITLE3=She's No Lady
TTITLE4=Australia's Not Australia Anymore
TTITLE5=Wonder Could I Live There Anymore
TTITLE6=Cold Hard Facts Of Life
TTITLE7=KB Blues
TTITLE8=All Need A Hug In The Morning
TTITLE9=A Few Old country Boys
TTITLE10=Dr. Days Green Pills
TTITLE11=I'm Just Me
TTITLE12=Little More Time Lord
TTITLE13=Carrol County Accident
TTITLE14=Mothers Birthday Song
TTITLE15=Got No Reason Now For Going Home
TTITLE16=Just Between You And Me
TTITLE17=Good Old Country Music
TTITLE18=Even If Its Only For A MInute
TTITLE19=Goodbye My Friends
EXTD=
EXTT0=
EXTT1=
EXTT2=
EXTT3=
EXTT4=
EXTT5=
EXTT6=
EXTT7=
EXTT8=
EXTT9=
EXTT10=
EXTT11=
EXTT12=
EXTT13=
EXTT14=
EXTT15=
EXTT16=
EXTT17=
EXTT18=
EXTT19=
PLAYORDER=
